<svg height="512" viewBox="0 0 1976 512" width="1976" xmlns="http://www.w3.org/2000/svg" xmlns:xlink="http://www.w3.org/1999/xlink">
	<mask id="a" fill="#fff">
		<path d="m0 0h374v374h-374z" fill="#fff" fill-rule="evenodd" />
	</mask>
	<g fill="none" fill-rule="evenodd">
		<path d="m.16803892 374c-.28739895-7.411982 14.19217488-256.741755 21.14308148-373.97525588 117.5609846.03880619 235.1278946-.15522477 352.6888796.15522476-103.134743 21.92549752-206.66651 40.20321312-309.9079164 61.23616832" fill="#bf0222" mask="url(#a)" transform="translate(69 69)" />
		<g fill="#fff">
			<text font-family="IBMPlexSans-BoldItalic, IBM Plex Sans" font-size="288" font-style="italic" font-weight="bold" letter-spacing="-11.8000002">
				<tspan x="154.5" y="376">
					HEBRO
				</tspan>
				<tspan x="1038.412" y="376">
					N
				</tspan>
			</text>
			<g fill-rule="nonzero" transform="translate(1307 175)">
				<path d="m4 43c-1.07412264 4.4776138 7 4.0620004-2.3679551 4.0620004-9.36795509 0 57.5235681 0 57.5235681 0 4.7515426-.001062 11.7543421 7.0254781 8.3229503 17.3560639l-50.4967657 138.5819357h80.5371958l49.0255976-139.0449907c6.271716-16.8930089 6.152703-17.6109565 30.83052-17.6587488h226.362847c7.748885.0031861 8.484969-.2049762 11.817349 5.5757762l48.735565 85.9221813c1.646188 4.543461.645074 7.023353-4.689536 7.023353h-47.959476l-20.326321 58.182429 179.658514-.03611c3.955452-.084964 6.008686-3.956146 4.562521-8.493235l-98.782279-183.1222979c-4.809549-7.49915356-12.147387-11.75055019-22.814605-11.31829477l-7.211824.01062053-427.4628077-.02548927h-6.252714z" />
				<path d="m326 203s6.728747 0 14.315157-16.75514c5.243401-11.58107 18.620551-51.040253 21.43156-62.740366 5.188165-21.605032-22.212898-34.6316108-22.212898-34.6316108-2.271705-1.2052987-2.946588-2.3191902-2.535833-3.6945487l11.367564-31.1783345h49.543661c3.63051.4219608 4.44499.849236 7.587415 4.4810751l14.811276 24.0698358c1.018351 1.774999.81448 2.7709115.025108 4.9391737l-40.49902 115.5099154z" />
				<path d="m292.613501 202s9.955604-.181549 11.574101-.320631c8.586721-.73363 13.642902-2.535323 20.241697-10.992769 7.174905-9.1932 24.725763-58.015151 25.499566-69.35297.812743-11.8899-5.4316-18.710215-13.984374-23.901894-7.585269-4.6045624-63.749413-28.579713-65.666449-29.4768436-1.917035-.8971306-3.13615-2.7996844-3.635378-5.8520517-.499228-3.0523672.720886-8.1028407.720886-8.1028407l-88.561044.0095552s-4.60388 16.4923386-5.202954 26.342726c-.466278 7.6728551 3.821091 10.6763845 6.44104 12.6543185 3.43369 2.5937159 86.210678 40.3422093 88.98938 42.1343473 3.806114 2.454634 7.114997 10.621176-3.994822 10.622238l-137.221791.001062-19.813359 56.235753z" />
			</g>
		</g>
	</g>
</svg>
